<svg width="1000" height="1001" viewBox="0 0 1000 1001" fill="none" xmlns="http://www.w3.org/2000/svg">
<rect width="1000" height="1000" transform="translate(0 0.892578)" fill="black"/>
<path fill-rule="evenodd" clip-rule="evenodd" d="M153.959 375.613L273.143 626.171H672.682L709.25 563.87L747.172 626.171H846.041L762.07 500.215L846.041 375.613H747.172L710.604 428.434L672.682 375.613H409.935L325.964 531.366L248.765 375.613H153.959ZM458.088 464.059L489.551 407.263H642.755L611.202 464.059H458.088ZM357.043 529.692L388.57 472.895H606.921L575.367 529.692H357.043ZM385.569 595.321L416.991 538.524H527.996L496.85 595.321H385.569ZM528.547 538.524L497.401 595.321H500.3L531.446 538.524H528.547ZM504.153 595.321H506.633L537.78 538.524H535.3L504.153 595.321ZM507.736 595.321H511.591L542.738 538.524H538.882L507.736 595.321ZM512.694 595.321H516.54L547.686 538.524H543.84L512.694 595.321ZM517.642 595.321H520.956L552.103 538.524H548.789L517.642 595.321ZM523.162 595.321H527.556L558.702 538.524H554.308L523.162 595.321ZM529.761 595.321H534.165L565.311 538.524H560.908L529.761 595.321ZM536.37 595.321H540.19L571.336 538.524H567.517L536.37 595.321ZM544.601 595.321H548.888L580.035 538.524H575.747L544.601 595.321ZM553.299 595.321H557.601L588.748 538.524H584.445L553.299 595.321ZM562.012 595.321H565.904L597.209 538.524H593.158L562.012 595.321ZM574.736 595.321H582.943L614.497 538.524H606.041L574.736 595.321ZM534.748 538.524L503.602 595.321H500.851L531.997 538.524H534.748Z" fill="white"/>
</svg>